<svg xmlns="http://www.w3.org/2000/svg" width="20" height="20" viewBox="0 0 48 48">
  <g>
    <path fill="#4285F4" d="M43.6 20.5H42V20H24v8h11.3C34.7 32.1 29.8 35 24 35c-6.1 0-11.3-4.9-11.3-11S17.9 13 24 13c2.6 0 5 .8 6.9 2.3l6.5-6.5C34.6 5.5 29.6 3.5 24 3.5 12.7 3.5 3.5 12.7 3.5 24S12.7 44.5 24 44.5c11 0 20.5-8 20.5-20.5 0-1.4-.1-2.7-.4-4z"/>
    <path fill="#34A853" d="M6.3 14.1l6.6 4.8C14.5 16.1 18.9 13 24 13c2.6 0 5 .8 6.9 2.3l6.5-6.5C34.6 5.5 29.6 3.5 24 3.5c-7.2 0-13.4 4.1-16.7 10.6z"/>
    <path fill="#FBBC05" d="M24 44.5c5.6 0 10.6-1.9 14.5-5.2l-6.7-5.5c-2 1.4-4.5 2.2-7.8 2.2-5.7 0-10.6-3.9-12.3-9.2l-6.6 5.1C7.9 39.7 15.3 44.5 24 44.5z"/>
    <path fill="#EA4335" d="M43.6 20.5H42V20H24v8h11.3c-1.1 3-4.1 5-7.3 5-2.1 0-4-.7-5.5-2l-6.7 5.2C18.2 41.1 20.9 44.5 24 44.5c6.1 0 11.3-4.9 11.3-11 0-.7-.1-1.4-.2-2z"/>
  </g>
</svg> 